<?xml version="1.0" encoding="utf-8"?>
<!-- Generator: Adobe Illustrator 22.1.0, SVG Export Plug-In . SVG Version: 6.00 Build 0)  -->
<svg version="1.1" id="图层_1" xmlns="http://www.w3.org/2000/svg" xmlns:xlink="http://www.w3.org/1999/xlink" x="0px" y="0px"
	 viewBox="0 0 189.9 90.7" style="enable-background:new 0 0 189.9 90.7;" xml:space="preserve">
<style type="text/css">
	.st0{fill:#B48A33;}
</style>
<g>
	<path class="st0" d="M19.4,84.5c0,0.3-0.1,0.5-0.4,0.5h-3.3c-0.3,0-0.4-0.2-0.4-0.5v-6.6c0-0.3-0.1-0.5-0.4-0.5h-2.2
		c-0.3,0-0.4,0.2-0.4,0.5v6.6c0,0.3-0.1,0.5-0.4,0.5H8.7c-0.3,0-0.4-0.2-0.4-0.5V69c0-0.3,0.1-0.5,0.4-0.5h3.2
		c0.3,0,0.4,0.2,0.4,0.5v6.6c0,0.3,0.1,0.5,0.4,0.5h2.2c0.3,0,0.4-0.2,0.4-0.5V69c0-0.3,0.1-0.5,0.4-0.5h3.2c0.3,0,0.4,0.2,0.4,0.5
		L19.4,84.5L19.4,84.5z"/>
	<path class="st0" d="M35.2,85H24.5c-0.3,0-0.4-0.2-0.4-0.5V69c0-0.3,0.1-0.5,0.4-0.5h10.8c0,0.8-0.4,1.5-1.1,1.9
		C33.6,70.8,33,71,32.3,71h-3.7c-0.3,0-0.4,0.2-0.4,0.5v2.8c0,0.3,0.1,0.5,0.4,0.5h6.7c0,0.8-0.4,1.5-1.1,1.9
		c-0.6,0.4-1.2,0.6-1.9,0.6h-3.7c-0.3,0-0.4,0.2-0.4,0.5v4.1c0,0.3,0.1,0.5,0.4,0.5h3.7c0.7,0,1.4,0.2,1.9,0.6
		C34.9,83.5,35.2,84.2,35.2,85z"/>
	<path class="st0" d="M51.1,84.5c0,0.3-0.1,0.5-0.4,0.5h-3.2c-0.3,0-0.4-0.2-0.4-0.5v-4.1c0-0.3-0.1-0.5-0.4-0.5h-2.2
		c-0.3,0-0.4,0.2-0.4,0.5v4.1c0,0.3-0.1,0.5-0.4,0.5h-3.2c-0.3,0-0.4-0.2-0.4-0.5V71c0-0.8,0.4-1.5,1.1-1.9c0.6-0.4,1.2-0.6,1.9-0.6
		h5.1c0.7,0,1.4,0.2,1.9,0.6c0.7,0.5,1.1,1.1,1.1,1.9L51.1,84.5L51.1,84.5z M47,78.1V71c0-0.4-0.1-0.7-0.3-0.9
		c-0.2-0.2-0.4-0.4-0.7-0.4h-1c-0.3,0-0.5,0.1-0.7,0.4C44.1,70.3,44,70.6,44,71v7.1c0,0.3,0.1,0.5,0.4,0.5h2.2
		C46.9,78.6,47,78.4,47,78.1z"/>
	<path class="st0" d="M66.9,85h-8.1c-0.7,0-1.4-0.2-1.9-0.6c-0.7-0.5-1.1-1.1-1.1-1.9V69c0-0.3,0.1-0.5,0.4-0.5h3.2
		c0.3,0,0.4,0.2,0.4,0.5v13c0,0.3,0.1,0.5,0.4,0.5h3.7c0.7,0,1.4,0.2,1.9,0.6C66.5,83.5,66.9,84.2,66.9,85z"/>
	<path class="st0" d="M81.9,68.4c0,0.8-0.4,1.5-1.1,1.9c-0.6,0.4-1.2,0.6-1.9,0.6h-0.6c-0.3,0-0.4,0.2-0.4,0.5v13
		c0,0.3-0.1,0.5-0.4,0.5h-3.2c-0.3,0-0.4-0.2-0.4-0.5v-13c0-0.3-0.1-0.5-0.4-0.5h-0.6c-0.7,0-1.4-0.2-1.9-0.6
		c-0.7-0.5-1.1-1.1-1.1-1.9H81.9z"/>
	<path class="st0" d="M97.8,84.5c0,0.3-0.1,0.5-0.4,0.5h-3.2c-0.3,0-0.4-0.2-0.4-0.5v-6.6c0-0.3-0.1-0.5-0.4-0.5h-2.2
		c-0.3,0-0.4,0.2-0.4,0.5v6.6c0,0.3-0.1,0.5-0.4,0.5h-3.2c-0.3,0-0.4-0.2-0.4-0.5V69c0-0.3,0.1-0.5,0.4-0.5h3.2
		c0.3,0,0.4,0.2,0.4,0.5v6.6c0,0.3,0.1,0.5,0.4,0.5h2.2c0.3,0,0.4-0.2,0.4-0.5V69c0-0.3,0.1-0.5,0.4-0.5h3.2c0.3,0,0.4,0.2,0.4,0.5
		V84.5z"/>
	<path class="st0" d="M134.2,84.5c0,0.3-0.1,0.5-0.4,0.5h-3.2c-0.3,0-0.4-0.2-0.4-0.5V71c0-0.4-0.1-0.7-0.3-0.9s-0.4-0.4-0.7-0.4h-1
		c-0.3,0-0.5,0.1-0.7,0.4s-0.3,0.5-0.3,0.9v13.5c0,0.3-0.1,0.5-0.4,0.5h-3.2c-0.3,0-0.4-0.2-0.4-0.5V71c0-0.4-0.1-0.7-0.3-0.9
		s-0.4-0.4-0.7-0.4h-1c-0.3,0-0.5,0.1-0.7,0.4c-0.2,0.2-0.3,0.5-0.3,0.9v13.5c0,0.3-0.1,0.5-0.4,0.5h-3.2c-0.3,0-0.4-0.2-0.4-0.5V71
		c0-0.8,0.4-1.5,1.1-1.9c0.6-0.4,1.2-0.6,1.9-0.6h5.1c0.4,0,0.7,0.1,1,0.2c0.3-0.1,0.7-0.2,1-0.2h5.1c0.7,0,1.4,0.2,1.9,0.6
		c0.7,0.5,1.1,1.1,1.1,1.9v13.5H134.2z"/>
	<path class="st0" d="M150,82.5c0,0.8-0.4,1.5-1.1,1.9c-0.6,0.4-1.2,0.6-1.9,0.6h-5.1c-0.7,0-1.4-0.2-1.9-0.6
		c-0.7-0.5-1.1-1.1-1.1-1.9V71c0-0.8,0.4-1.5,1.1-1.9c0.6-0.4,1.2-0.6,1.9-0.6h5.1c0.7,0,1.4,0.2,1.9,0.6c0.7,0.5,1.1,1.1,1.1,1.9
		V82.5z M146,82.5V71c0-0.4-0.1-0.7-0.3-0.9s-0.4-0.4-0.7-0.4h-1c-0.3,0-0.5,0.1-0.7,0.4c-0.2,0.2-0.3,0.5-0.3,0.9v11.5
		c0,0.4,0.1,0.7,0.3,0.9s0.4,0.4,0.7,0.4h1c0.3,0,0.5-0.1,0.7-0.4S146,82.8,146,82.5z"/>
	<path class="st0" d="M165.9,84.5c0,0.3-0.1,0.5-0.4,0.5h-3.2c-0.3,0-0.4-0.2-0.4-0.5v-4.6c0-0.4-0.1-0.7-0.3-0.9s-0.4-0.4-0.7-0.4
		h-1.6c-0.3,0-0.4,0.2-0.4,0.5v5.3c0,0.3-0.1,0.5-0.4,0.5h-3.2c-0.3,0-0.4-0.2-0.4-0.5V69c0-0.3,0.1-0.5,0.4-0.5h7.7
		c0.7,0,1.4,0.2,1.9,0.6c0.7,0.5,1.1,1.1,1.1,1.9v5.1c0,0.8-0.3,1.4-1,1.9c0.7,0.5,1,1.1,1,1.9v4.6H165.9z M161.8,76.1V71
		c0-0.4-0.1-0.7-0.3-0.9s-0.4-0.4-0.7-0.4h-1.6c-0.3,0-0.4,0.2-0.4,0.5v6.6c0,0.3,0.1,0.5,0.4,0.5h1.6c0.3,0,0.5-0.1,0.7-0.4
		C161.7,76.8,161.8,76.5,161.8,76.1z"/>
	<path class="st0" d="M181.7,85h-10.8c-0.3,0-0.4-0.2-0.4-0.5V69c0-0.3,0.1-0.5,0.4-0.5h10.8c0,0.8-0.4,1.5-1.1,1.9
		c-0.6,0.4-1.2,0.6-1.9,0.6H175c-0.3,0-0.4,0.2-0.4,0.5v2.8c0,0.3,0.1,0.5,0.4,0.5h6.7c0,0.8-0.4,1.5-1.1,1.9
		c-0.6,0.4-1.2,0.6-1.9,0.6H175c-0.3,0-0.4,0.2-0.4,0.5v4.1c0,0.3,0.1,0.5,0.4,0.5h3.7c0.7,0,1.4,0.2,1.9,0.6
		C181.3,83.6,181.7,84.2,181.7,85z"/>
	<path class="st0" d="M64.6,31.7v18.9c0,1,0.4,1.5,1.2,1.5h9.7c0.8,0,1.2-0.5,1.2-1.5V31.7H64.6z"/>
	<path class="st0" d="M107.4,31.3v18.9c0,1,0.4,1.5,1.2,1.5h9.7c0.8,0,1.2-0.5,1.2-1.5V31.3H107.4z"/>
	<path class="st0" d="M115.8,7.6c-1.8-1.2-3.7-1.8-5.8-1.8H94.9c-1,0-2.1,0.2-3,0.5c-1-0.3-2-0.5-3-0.5H73.8c-2.1,0-4,0.6-5.8,1.8
		c-2.2,1.4-3.3,3.3-3.3,5.8V26h12V13.4c0-1.1,0.3-2,0.9-2.7s1.3-1.1,2.1-1.1h3c0.9,0,1.6,0.4,2.2,1.1c0.6,0.7,0.9,1.6,0.9,2.7v19.1
		h12.1V13.4c0-1.1,0.3-2,0.9-2.7c0.6-0.7,1.3-1.1,2.1-1.1h3c0.9,0,1.6,0.4,2.2,1.1c0.6,0.7,0.9,1.6,0.9,2.7v12.4h12.1V13.4
		C119,10.9,117.9,9,115.8,7.6z"/>
	<ellipse class="st0" cx="92.2" cy="42" rx="6.2" ry="6.1"/>
</g>
</svg>
